<svg width="40" height="40" viewBox="0 0 40 40" fill="none" xmlns="http://www.w3.org/2000/svg">
<path fill-rule="evenodd" clip-rule="evenodd" d="M31.0533 21.6292L30.9158 21.3351C30.32 20.0651 30.1466 18.7201 30.0933 17.5267C30.0718 16.9464 30.0662 16.3657 30.0766 15.7851C30.0766 15.7101 30.0783 15.6351 30.0791 15.5626C30.0841 15.0909 30.0891 14.6626 30.0791 14.2509C30.0369 12.62 29.5241 11.0362 28.6025 9.69006C27.5398 8.37517 26.1629 7.34916 24.5991 6.70673L24.5725 6.69506L24.545 6.68256C22.4096 5.7134 20.0908 5.21463 17.7458 5.22006H17.7441C14.8055 5.21726 11.9828 6.36638 9.88163 8.42089C8.8584 9.4212 8.04508 10.6156 7.4893 11.9342C6.93353 13.2529 6.64648 14.6691 6.64496 16.1001C6.64663 17.8034 7.14246 19.7467 8.00329 21.5434C8.86663 23.3451 10.0366 24.8742 11.2675 25.8209L11.9175 26.3209L11.9233 33.7509C12.1941 34.0859 12.7208 34.4992 13.51 34.8576C14.4758 35.2959 15.4458 35.4734 16.0075 35.4267L16.075 35.4217H16.1433C17.7733 35.4201 18.5358 34.9584 18.8641 34.6784C18.9598 34.5976 19.0459 34.5062 19.1208 34.4059L19.1175 29.7926L21.1983 30.3292H21.2016L21.2116 30.3317L21.2775 30.3484C21.3391 30.3617 21.4358 30.3834 21.5608 30.4084C21.8133 30.4584 22.18 30.5234 22.6216 30.5776C23.5191 30.6876 24.6633 30.7459 25.7683 30.5826C26.8833 30.4184 27.8116 30.0517 28.45 29.4401C29.045 28.8701 29.5675 27.9151 29.5666 26.1692L29.565 24.7442L30.9658 24.5226H30.9675L30.9741 24.5209C30.9923 24.518 31.0103 24.5147 31.0283 24.5109C31.3594 24.4458 31.6833 24.3478 31.995 24.2184C32.2625 24.1051 32.4558 23.9867 32.57 23.8867C32.5875 23.8715 32.6042 23.8554 32.62 23.8384C32.6071 23.7402 32.5808 23.6443 32.5416 23.5534C32.45 23.3217 32.2941 23.0534 32.095 22.7767C31.8606 22.4539 31.5997 22.1512 31.315 21.8717L31.2975 21.8551L31.29 21.8484V21.8476L31.0533 21.6292V21.6292ZM20.7858 31.9434C20.7858 31.9434 21.4541 32.1159 22.4525 32.2359C25.4033 32.5917 31.2383 32.4951 31.2333 26.1676C31.2333 26.1676 33.985 25.7326 34.2625 24.1592C34.54 22.5859 32.4241 20.6267 32.4241 20.6267C31.7041 19.0917 31.7258 17.2834 31.745 15.5851C31.7508 15.1159 31.7558 14.6551 31.745 14.2101C31.6943 12.2351 31.0672 10.3181 29.9408 8.69506C28.6975 7.13777 27.0779 5.9229 25.235 5.16506C22.8821 4.09713 20.3272 3.54749 17.7433 3.55339C14.3675 3.55067 11.1252 4.87157 8.71246 7.23256C7.53156 8.38829 6.59311 9.76801 5.95206 11.2909C5.31101 12.8139 4.98024 14.4494 4.97913 16.1017C4.98163 20.1017 7.27663 24.8534 10.2516 27.1426L10.2566 34.2209C11.1016 35.9892 14.285 37.2417 16.1441 37.0876C20.0933 37.0851 20.7883 34.8042 20.7883 34.8042L20.7858 31.9434V31.9434Z" fill="#4A9DFF"/>
<path fill-rule="evenodd" clip-rule="evenodd" d="M22.2483 17.0784C22.6566 17.0784 22.7233 17.0018 22.8533 16.8568C22.9283 16.7726 23.025 16.6651 23.22 16.5351C23.7637 16.8882 24.4 17.0721 25.0483 17.0634L27.1141 16.3301C27.6926 15.8682 28.0924 15.2194 28.245 14.4951C28.3945 13.7747 28.2853 13.0247 27.9366 12.3768C27.5824 11.7211 27.0142 11.2067 26.3266 10.9193C26.165 10.2181 25.7658 9.59453 25.1966 9.15427L23.18 8.46927H22.9525C22.4969 7.82834 21.8236 7.37513 21.0583 7.19427L17.5675 6.96094C16.8525 7.01794 16.1764 7.30942 15.6441 7.7901C15.2194 7.68968 14.7789 7.67511 14.3484 7.74723C13.918 7.81936 13.5063 7.97672 13.1375 8.2101C12.621 8.53634 12.2105 9.00565 11.9558 9.56094L10.3141 10.6951C9.90689 11.2305 9.68672 11.8849 9.68748 12.5576C9.68331 12.8376 9.72164 13.1159 9.80164 13.3859C9.34152 13.9718 9.11006 14.705 9.15038 15.4488C9.1907 16.1927 9.50005 16.8966 10.0208 17.4293C10.0666 18.0001 10.2716 18.5476 10.6141 19.0126C10.9566 19.4776 11.4241 19.8426 11.9641 20.0684C12.584 20.4449 13.1117 20.9554 13.5083 21.5626C13.9016 22.1659 14.0641 22.8484 14.1516 23.5584L17.5816 23.5551L17.5783 20.2409C17.5775 19.6526 17.745 19.0751 18.0641 18.5743C18.1125 18.4993 18.1575 18.4251 18.2016 18.3543C18.4458 17.9559 18.6433 17.6318 19.1033 17.4109C19.6091 17.2227 20.0666 16.9241 20.4425 16.5368C20.9758 16.8901 21.6041 17.0784 22.2483 17.0784ZM11.6458 16.9651L18.3125 15.9218L13.985 11.1301L11.6458 16.9651V16.9651ZM18.725 13.0684L20.6983 9.40177L24.4341 11.3384L22.4608 15.0051L18.725 13.0684Z" fill="#4A9DFF"/>
<path d="M28.3149 19.8684C28.3151 20.0325 28.2829 20.1951 28.2203 20.3468C28.1576 20.4985 28.0657 20.6364 27.9497 20.7526C27.8338 20.8688 27.696 20.961 27.5444 21.024C27.3929 21.087 27.2303 21.1195 27.0662 21.1196C26.902 21.1198 26.7395 21.0876 26.5877 21.025C26.436 20.9623 26.2981 20.8704 26.1819 20.7544C26.0658 20.6384 25.9735 20.5007 25.9106 20.3491C25.8476 20.1975 25.8151 20.035 25.8149 19.8709C25.8146 19.5394 25.946 19.2213 26.1802 18.9866C26.4144 18.752 26.7322 18.62 27.0637 18.6196C27.3952 18.6193 27.7133 18.7507 27.9479 18.9849C28.1826 19.219 28.3146 19.5369 28.3149 19.8684Z" fill="#4A9DFF"/>
<path fill-rule="evenodd" clip-rule="evenodd" d="M17.4875 26.9609L14.1541 26.9634L14.1525 25.2967L17.4858 25.2942L17.4875 26.9609Z" fill="#4A9DFF"/>
<path fill-rule="evenodd" clip-rule="evenodd" d="M17.4899 30.2942L14.1566 30.2967L14.1558 28.6301L17.4891 28.6276L17.4899 30.2942Z" fill="#4A9DFF"/>
<path fill-rule="evenodd" clip-rule="evenodd" d="M17.4925 33.6276L14.1592 33.6301L14.1583 31.9634L17.4917 31.9609L17.4925 33.6276Z" fill="#4A9DFF"/>
</svg>
