<svg width="40" height="40" viewBox="0 0 40 40" fill="none" xmlns="http://www.w3.org/2000/svg">
<path d="M32.3172 19.2266H30.1562C30.1148 19.2266 30.0751 19.2102 30.0458 19.1809C30.0165 19.1516 30 19.1118 30 19.0704V13.036C30 12.2308 29.6801 11.4586 29.1108 10.8893C28.5414 10.3199 27.7692 10.0001 26.9641 10.0001H20.9297C20.8882 10.0001 20.8485 9.9836 20.8192 9.9543C20.7899 9.92499 20.7734 9.88525 20.7734 9.84381V7.68287C20.7734 5.56256 19.0937 3.78756 16.9734 3.75084C16.4597 3.74182 15.9494 3.83519 15.4721 4.02551C14.9949 4.21583 14.5603 4.49928 14.1938 4.85934C13.8272 5.2194 13.5361 5.64884 13.3373 6.12262C13.1385 6.59639 13.0361 7.10502 13.0359 7.61881V9.84381C13.0359 9.88525 13.0195 9.92499 12.9902 9.9543C12.9609 9.9836 12.9211 10.0001 12.8797 10.0001H6.84531C6.02515 10.0025 5.23928 10.3294 4.65933 10.9094C4.07938 11.4893 3.75247 12.2752 3.75 13.0954V18.5938C3.75 18.6353 3.76646 18.675 3.79576 18.7043C3.82507 18.7336 3.86481 18.7501 3.90625 18.7501H6.00859C8.30313 18.7501 10.2023 20.7407 10.2344 23.0352C10.2672 25.3688 8.39766 27.5001 6.07109 27.5001H3.90625C3.86481 27.5001 3.82507 27.5165 3.79576 27.5458C3.76646 27.5751 3.75 27.6149 3.75 27.6563V33.1547C3.75247 33.9749 4.07938 34.7608 4.65933 35.3407C5.23928 35.9207 6.02515 36.2476 6.84531 36.2501H12.3438C12.3852 36.2501 12.4249 36.2336 12.4542 36.2043C12.4835 36.175 12.5 36.1353 12.5 36.0938V34.4587C12.5 32.093 14.4336 30.0563 16.7969 30.0008C19.1484 29.9462 21.25 31.5876 21.25 33.929V36.0938C21.25 36.1353 21.2665 36.175 21.2958 36.2043C21.3251 36.2336 21.3648 36.2501 21.4062 36.2501H26.9641C27.7692 36.2501 28.5414 35.9302 29.1108 35.3609C29.6801 34.7915 30 34.0193 30 33.2141V27.1204C30 27.0789 30.0165 27.0392 30.0458 27.0099C30.0751 26.9806 30.1148 26.9641 30.1562 26.9641H32.3813C34.5398 26.9641 36.25 25.193 36.25 23.0266C36.25 20.8602 34.4375 19.2266 32.3172 19.2266V19.2266Z" stroke="#4A9DFF" stroke-width="2.5" stroke-linecap="round" stroke-linejoin="round"/>
</svg>
