<svg width="40" height="40" viewBox="0 0 40 40" fill="none" xmlns="http://www.w3.org/2000/svg">
<path d="M36.5023 30.5586L35.2084 25.7295L35.2083 25.7289L35.2081 25.7283L30.0319 6.4103C29.8595 5.7703 29.4404 5.22479 28.8664 4.89341C28.2924 4.56203 27.6104 4.47185 26.97 4.64264L22.1403 5.93671C22.0872 5.95092 22.0367 5.96952 21.9853 5.98671C21.7528 5.68033 21.4527 5.43186 21.1083 5.26069C20.7639 5.08952 20.3846 5.0003 20 4.99999H15C14.5607 5.00011 14.1294 5.11685 13.75 5.33827C13.3706 5.11685 12.9393 5.00011 12.5 4.99999H7.5C6.83719 5.00073 6.20174 5.26436 5.73306 5.73304C5.26438 6.20172 5.00074 6.83717 5 7.49999V32.5C5.00074 33.1628 5.26438 33.7982 5.73306 34.2669C6.20174 34.7356 6.83719 34.9992 7.5 35H12.5C12.9393 34.9999 13.3706 34.8831 13.75 34.6617C14.1294 34.8831 14.5607 34.9999 15 35H20C20.6628 34.9992 21.2983 34.7356 21.7669 34.2669C22.2356 33.7982 22.4993 33.1628 22.5 32.5V16.938L25.5489 28.3167V28.317L25.5491 28.3173L26.8431 33.1467C26.9279 33.4639 27.0745 33.7613 27.2743 34.0219C27.4741 34.2824 27.7233 34.501 28.0077 34.6652C28.292 34.8294 28.606 34.9359 28.9315 34.9787C29.2571 35.0215 29.5879 34.9997 29.905 34.9145L34.7347 33.6205C35.3751 33.4488 35.9211 33.0298 36.2526 32.4556C36.5841 31.8814 36.674 31.199 36.5023 30.5586ZM24.405 14.3886L29.235 13.0944L32.4709 25.1681L27.6403 26.4626L24.405 14.3886ZM27.617 7.05733L28.5878 10.6795L23.7581 11.9737L22.7875 8.35155L27.617 7.05733ZM20 7.49999L20.0012 26.25H15V7.49999H20ZM12.5 7.49999V11.25H7.5V7.49999H12.5ZM7.5 32.5V13.75H12.5V32.5H7.5ZM20 32.5H15V28.75H20.0014L20.0016 32.5H20ZM34.0875 31.2056L29.258 32.4997L28.2873 28.8775L33.1183 27.583L34.0891 31.2051L34.0875 31.2056Z" fill="#4A9DFF"/>
</svg>
