<svg width="34" height="34" viewBox="0 0 34 34" fill="none" xmlns="http://www.w3.org/2000/svg">
<path d="M12 21.8617V22.8334C12 24.8225 12.7902 26.7302 14.1967 28.1367C15.6033 29.5432 17.5109 30.3334 19.5 30.3334C21.4892 30.3334 23.3968 29.5432 24.8033 28.1367C26.2099 26.7302 27 24.8225 27 22.8334V20.05C25.8876 19.6569 24.9499 18.883 24.3528 17.8654C23.7557 16.8477 23.5376 15.6517 23.737 14.4887C23.9365 13.3258 24.5407 12.2708 25.4428 11.5103C26.3449 10.7497 27.4868 10.3326 28.6667 10.3326C29.8466 10.3326 30.9886 10.7497 31.8907 11.5103C32.7928 12.2708 33.3969 13.3258 33.5964 14.4887C33.7959 15.6517 33.5777 16.8477 32.9806 17.8654C32.3835 18.883 31.4459 19.6569 30.3334 20.05V22.8334C30.3334 25.7066 29.192 28.4621 27.1604 30.4937C25.1287 32.5253 22.3732 33.6667 19.5 33.6667C16.6269 33.6667 13.8714 32.5253 11.8397 30.4937C9.80807 28.4621 8.66671 25.7066 8.66671 22.8334V21.8617C6.33659 21.4672 4.2214 20.2604 2.69604 18.4553C1.17068 16.6502 0.333677 14.3633 0.333374 12V3.66671C0.333374 2.78265 0.684563 1.93481 1.30968 1.30968C1.93481 0.684563 2.78265 0.333374 3.66671 0.333374H5.33337C5.7754 0.333374 6.19932 0.508969 6.51188 0.821529C6.82445 1.13409 7.00004 1.55801 7.00004 2.00004C7.00004 2.44207 6.82445 2.86599 6.51188 3.17855C6.19932 3.49111 5.7754 3.66671 5.33337 3.66671H3.66671V12C3.66671 13.7682 4.36909 15.4638 5.61933 16.7141C6.86957 17.9643 8.56526 18.6667 10.3334 18.6667C12.1015 18.6667 13.7972 17.9643 15.0474 16.7141C16.2977 15.4638 17 13.7682 17 12V3.66671H15.3334C14.8913 3.66671 14.4674 3.49111 14.1549 3.17855C13.8423 2.86599 13.6667 2.44207 13.6667 2.00004C13.6667 1.55801 13.8423 1.13409 14.1549 0.821529C14.4674 0.508969 14.8913 0.333374 15.3334 0.333374H17C17.8841 0.333374 18.7319 0.684563 19.3571 1.30968C19.9822 1.93481 20.3334 2.78265 20.3334 3.66671V12C20.3331 14.3633 19.4961 16.6502 17.9707 18.4553C16.4454 20.2604 14.3302 21.4672 12 21.8617ZM28.6667 17C29.1087 17 29.5327 16.8244 29.8452 16.5119C30.1578 16.1993 30.3334 15.7754 30.3334 15.3334C30.3334 14.8913 30.1578 14.4674 29.8452 14.1549C29.5327 13.8423 29.1087 13.6667 28.6667 13.6667C28.2247 13.6667 27.8008 13.8423 27.4882 14.1549C27.1756 14.4674 27 14.8913 27 15.3334C27 15.7754 27.1756 16.1993 27.4882 16.5119C27.8008 16.8244 28.2247 17 28.6667 17Z" fill="#4A9DFF"/>
</svg>
