<svg width="25" height="31" viewBox="0 0 25 31" fill="none" xmlns="http://www.w3.org/2000/svg">
<path d="M12.5 16.95C14.8817 16.95 16.8125 15.0024 16.8125 12.6C16.8125 10.1976 14.8817 8.25 12.5 8.25C10.1183 8.25 8.1875 10.1976 8.1875 12.6C8.1875 15.0024 10.1183 16.95 12.5 16.95Z" stroke="#4A9DFF" stroke-width="2" stroke-linecap="round" stroke-linejoin="round"/>
<path d="M12.5 1C9.45001 1 6.52494 2.22214 4.36827 4.39756C2.2116 6.57298 1 9.52349 1 12.6C1 15.3434 1.57787 17.1385 3.15625 19.125L12.5 30L21.8438 19.125C23.4221 17.1385 24 15.3434 24 12.6C24 9.52349 22.7884 6.57298 20.6317 4.39756C18.4751 2.22214 15.55 1 12.5 1V1Z" stroke="#4A9DFF" stroke-width="2" stroke-linecap="round" stroke-linejoin="round"/>
</svg>
