<svg width="35" height="26" viewBox="0 0 35 26" fill="none" xmlns="http://www.w3.org/2000/svg">
<path d="M32.8125 0H2.1875C1.60734 0 1.05094 0.228273 0.640704 0.634602C0.230468 1.04093 0 1.59203 0 2.16667V23.8333C0 24.408 0.230468 24.9591 0.640704 25.3654C1.05094 25.7717 1.60734 26 2.1875 26H32.8125C33.3927 26 33.9491 25.7717 34.3593 25.3654C34.7695 24.9591 35 24.408 35 23.8333V2.16667C35 1.59203 34.7695 1.04093 34.3593 0.634602C33.9491 0.228273 33.3927 0 32.8125 0ZM31.1281 23.8333H4.00313L11.6594 15.99L10.0844 14.4842L2.1875 22.5767V3.81333L15.7828 17.2142C16.1927 17.6177 16.7471 17.8442 17.325 17.8442C17.9029 17.8442 18.4573 17.6177 18.8672 17.2142L32.8125 3.4775V22.4358L24.7625 14.4625L23.2203 15.99L31.1281 23.8333ZM3.62031 2.16667H31.0406L17.325 15.6758L3.62031 2.16667Z" fill="#4A9DFF"/>
</svg>
