<svg width="40" height="40" viewBox="0 0 40 40" fill="none" xmlns="http://www.w3.org/2000/svg">
<path d="M30 30C29.558 30 29.134 30.1756 28.8215 30.4882C28.5089 30.8008 28.3333 31.2247 28.3333 31.6667C28.3333 32.1087 28.1577 32.5327 27.8452 32.8452C27.5326 33.1578 27.1087 33.3334 26.6667 33.3334H10C9.55797 33.3334 9.13405 33.1578 8.82149 32.8452C8.50893 32.5327 8.33333 32.1087 8.33333 31.6667V8.33337C8.33333 7.89135 8.50893 7.46742 8.82149 7.15486C9.13405 6.8423 9.55797 6.66671 10 6.66671H18.3333V11.6667C18.3333 12.9928 18.8601 14.2646 19.7978 15.2022C20.7355 16.1399 22.0073 16.6667 23.3333 16.6667H28.3333V18.3334C28.3333 18.7754 28.5089 19.1993 28.8215 19.5119C29.134 19.8244 29.558 20 30 20C30.442 20 30.866 19.8244 31.1785 19.5119C31.4911 19.1993 31.6667 18.7754 31.6667 18.3334V15V14.9C31.6493 14.7469 31.6158 14.5961 31.5667 14.45C31.5737 14.4003 31.5737 14.3498 31.5667 14.3C31.4865 14.1287 31.3796 13.9711 31.25 13.8334L21.25 3.83337C21.1122 3.70373 20.9547 3.59684 20.7833 3.51671H20.6167C20.4594 3.43243 20.2911 3.37071 20.1167 3.33337H10C8.67392 3.33337 7.40215 3.86016 6.46447 4.79784C5.52678 5.73552 5 7.00729 5 8.33337V31.6667C5 32.9928 5.52678 34.2646 6.46447 35.2022C7.40215 36.1399 8.67392 36.6667 10 36.6667H26.6667C27.9927 36.6667 29.2645 36.1399 30.2022 35.2022C31.1399 34.2646 31.6667 32.9928 31.6667 31.6667C31.6667 31.2247 31.4911 30.8008 31.1785 30.4882C30.866 30.1756 30.442 30 30 30ZM21.6667 9.01671L25.9833 13.3334H23.3333C22.8913 13.3334 22.4674 13.1578 22.1548 12.8452C21.8423 12.5327 21.6667 12.1087 21.6667 11.6667V9.01671ZM33.3333 23.3334H29.1667C28.9473 23.3321 28.7299 23.3741 28.5268 23.4571C28.3238 23.54 28.1391 23.6622 27.9833 23.8167L25.9167 25.9L21.25 20.5667C21.0999 20.3947 20.916 20.2554 20.7099 20.1574C20.5037 20.0594 20.2796 20.0048 20.0514 19.997C19.8233 19.9892 19.5959 20.0283 19.3835 20.112C19.1711 20.1957 18.9782 20.3221 18.8167 20.4834L15.9833 23.3334H13.3333C12.8913 23.3334 12.4674 23.509 12.1548 23.8215C11.8423 24.1341 11.6667 24.558 11.6667 25C11.6667 25.4421 11.8423 25.866 12.1548 26.1786C12.4674 26.4911 12.8913 26.6667 13.3333 26.6667H16.6667C16.886 26.668 17.1034 26.6259 17.3065 26.543C17.5096 26.4601 17.6943 26.3378 17.85 26.1834L20 24.1L24.6667 29.4334C24.8172 29.605 25.0014 29.7438 25.2078 29.8413C25.4143 29.9388 25.6385 29.9928 25.8667 30C26.086 30.0013 26.3034 29.9593 26.5065 29.8763C26.7096 29.7934 26.8943 29.6712 27.05 29.5167L29.85 26.6667H33.3333C33.7754 26.6667 34.1993 26.4911 34.5118 26.1786C34.8244 25.866 35 25.4421 35 25C35 24.558 34.8244 24.1341 34.5118 23.8215C34.1993 23.509 33.7754 23.3334 33.3333 23.3334Z" fill="#4A9DFF"/>
</svg>
