<svg width="40" height="40" viewBox="0 0 40 40" fill="none" xmlns="http://www.w3.org/2000/svg">
<path d="M33.75 30C33.1932 30.0025 32.6441 30.1307 32.1438 30.375L26.7688 25H22.5V27.5H25.7325L30.3763 32.1438C30.1318 32.6441 30.0032 33.1931 30 33.75C30 34.4917 30.2199 35.2167 30.632 35.8334C31.044 36.4501 31.6297 36.9307 32.3149 37.2145C33.0002 37.4984 33.7542 37.5726 34.4816 37.4279C35.209 37.2833 35.8772 36.9261 36.4017 36.4017C36.9261 35.8772 37.2833 35.209 37.4279 34.4816C37.5726 33.7542 37.4984 33.0002 37.2145 32.3149C36.9307 31.6297 36.4501 31.044 35.8334 30.632C35.2167 30.2199 34.4917 30 33.75 30ZM33.75 35C33.5028 35 33.2611 34.9267 33.0555 34.7893C32.85 34.652 32.6898 34.4568 32.5952 34.2284C32.5005 33.9999 32.4758 33.7486 32.524 33.5061C32.5722 33.2637 32.6913 33.0409 32.8661 32.8661C33.0409 32.6913 33.2637 32.5722 33.5061 32.524C33.7486 32.4758 33.9999 32.5005 34.2284 32.5952C34.4568 32.6898 34.652 32.85 34.7893 33.0555C34.9267 33.2611 35 33.5028 35 33.75C35 34.0815 34.8683 34.3995 34.6339 34.6339C34.3995 34.8683 34.0815 35 33.75 35Z" fill="#4A9DFF"/>
<path d="M33.75 16.25C32.977 16.2523 32.2236 16.4938 31.5933 16.9415C30.9631 17.3891 30.4868 18.0209 30.23 18.75H22.5V21.25H30.23C30.4603 21.8965 30.8638 22.4672 31.3965 22.8998C31.9292 23.3325 32.5706 23.6104 33.2506 23.7031C33.9305 23.7959 34.6229 23.7 35.252 23.4259C35.8812 23.1518 36.4229 22.71 36.8179 22.1489C37.213 21.5877 37.4462 20.9288 37.4921 20.2441C37.5379 19.5593 37.3947 18.8752 37.0781 18.2663C36.7614 17.6575 36.2835 17.1474 35.6966 16.7918C35.1096 16.4362 34.4363 16.2488 33.75 16.25V16.25ZM33.75 21.25C33.5028 21.25 33.2611 21.1767 33.0555 21.0393C32.85 20.902 32.6898 20.7068 32.5952 20.4784C32.5005 20.25 32.4758 19.9986 32.524 19.7561C32.5722 19.5137 32.6913 19.2909 32.8661 19.1161C33.0409 18.9413 33.2637 18.8223 33.5061 18.774C33.7486 18.7258 33.9999 18.7505 34.2284 18.8452C34.4568 18.9398 34.652 19.1 34.7893 19.3055C34.9267 19.5111 35 19.7528 35 20C35 20.3315 34.8683 20.6495 34.6339 20.8839C34.3995 21.1183 34.0815 21.25 33.75 21.25Z" fill="#4A9DFF"/>
<path d="M33.75 2.5C32.7557 2.50099 31.8025 2.8964 31.0994 3.59945C30.3964 4.30249 30.001 5.25574 30 6.25C30.0043 6.84882 30.1535 7.43769 30.435 7.96625L25.745 12.5H22.5V15H26.755L32.255 9.685C32.7659 9.90779 33.3201 10.0139 33.8771 9.99546C34.4342 9.97706 34.9802 9.83468 35.4753 9.57867C35.9704 9.32266 36.4022 8.95947 36.7392 8.51553C37.0762 8.0716 37.31 7.55809 37.4236 7.01241C37.5371 6.46672 37.5275 5.90258 37.3956 5.36105C37.2636 4.81953 37.0125 4.31425 36.6606 3.882C36.3087 3.44976 35.8649 3.10142 35.3614 2.86235C34.8579 2.62328 34.3074 2.49949 33.75 2.5ZM33.75 7.5C33.5028 7.5 33.2611 7.42669 33.0555 7.28934C32.85 7.15199 32.6898 6.95676 32.5952 6.72836C32.5005 6.49995 32.4758 6.24861 32.524 6.00614C32.5722 5.76366 32.6913 5.54093 32.8661 5.36612C33.0409 5.1913 33.2637 5.07225 33.5061 5.02402C33.7486 4.97579 33.9999 5.00054 34.2284 5.09515C34.4568 5.18976 34.652 5.34998 34.7893 5.55554C34.9267 5.7611 35 6.00277 35 6.25C35 6.58152 34.8683 6.89946 34.6339 7.13388C34.3995 7.36831 34.0815 7.5 33.75 7.5Z" fill="#4A9DFF"/>
<path d="M22.5 7.5H25V5H22.5C21.7876 5.00238 21.0841 5.15786 20.4371 5.45592C19.7901 5.75397 19.2147 6.18763 18.75 6.7275C18.2853 6.18763 17.7099 5.75397 17.0629 5.45592C16.4159 5.15786 15.7124 5.00238 15 5H13.75C10.7673 5.00331 7.90777 6.18964 5.7987 8.2987C3.68964 10.4078 2.50331 13.2673 2.5 16.25V23.75C2.50331 26.7327 3.68964 29.5922 5.7987 31.7013C7.90777 33.8104 10.7673 34.9967 13.75 35H15C15.7124 34.9976 16.4159 34.8421 17.0629 34.5441C17.7099 34.246 18.2853 33.8124 18.75 33.2725C19.2147 33.8124 19.7901 34.246 20.4371 34.5441C21.0841 34.8421 21.7876 34.9976 22.5 35H25V32.5H22.5C21.8372 32.4993 21.2017 32.2357 20.733 31.767C20.2643 31.2983 20.0007 30.6628 20 30V10C20.0007 9.33716 20.2643 8.70166 20.733 8.23296C21.2017 7.76427 21.8372 7.50066 22.5 7.5V7.5ZM15 32.5H13.75C11.6481 32.4962 9.61759 31.7365 8.02948 30.3595C6.44136 28.9825 5.40156 27.0802 5.1 25H7.5V22.5H5V17.5H8.75C9.74426 17.499 10.6975 17.1036 11.4006 16.4006C12.1036 15.6975 12.499 14.7443 12.5 13.75V11.25H10V13.75C10 14.0815 9.8683 14.3995 9.63388 14.6339C9.39946 14.8683 9.08152 15 8.75 15H5.1C5.40156 12.9198 6.44136 11.0175 8.02948 9.6405C9.61759 8.26351 11.6481 7.50376 13.75 7.5H15C15.6628 7.50066 16.2983 7.76427 16.767 8.23296C17.2357 8.70166 17.4993 9.33716 17.5 10V15H15V17.5H17.5V22.5H15C14.0057 22.501 13.0525 22.8964 12.3494 23.5994C11.6464 24.3025 11.251 25.2557 11.25 26.25V28.75H13.75V26.25C13.75 25.9185 13.8817 25.6005 14.1161 25.3661C14.3505 25.1317 14.6685 25 15 25H17.5V30C17.4993 30.6628 17.2357 31.2983 16.767 31.767C16.2983 32.2357 15.6628 32.4993 15 32.5V32.5Z" fill="#4A9DFF"/>
</svg>
