<svg width="32" height="32" viewBox="0 0 32 32" fill="none" xmlns="http://www.w3.org/2000/svg">
<path d="M20.3627 17.6134C21.0836 17.8403 21.7745 18.1537 22.42 18.5468L22.3787 18.5228C23.084 18.8361 23.6933 19.2028 24.2493 19.6334L24.2293 19.6188C24.256 19.7001 24.272 19.7921 24.272 19.8894L24.2707 19.9321V19.9308C24.2507 20.5028 24.124 21.0401 23.9093 21.5294L23.92 21.5014C23.612 22.1188 23.0987 22.5948 22.4707 22.8481L22.452 22.8548C21.8022 23.1945 21.0836 23.3819 20.3507 23.4028H20.3427C18.9437 23.2229 17.5916 22.7785 16.3587 22.0934L16.416 22.1228C15.1064 21.5295 13.9155 20.7032 12.9013 19.6841L12.9 19.6828C11.7938 18.531 10.7909 17.2845 9.90267 15.9574L9.84 15.8588C8.95857 14.7066 8.44719 13.3142 8.37333 11.8654L8.372 11.8481V11.6828C8.39156 11.0639 8.53688 10.4555 8.79912 9.89455C9.06135 9.33364 9.43501 8.83197 9.89733 8.42009L9.90133 8.41609C10.1869 8.13154 10.5716 7.9686 10.9747 7.96142H10.976C11.1107 7.96542 11.24 7.97609 11.3653 7.99476L11.348 7.99209C11.464 8.00942 11.5987 8.02009 11.7373 8.02276H11.7413C11.9355 8.00388 12.1302 8.05186 12.2933 8.15876L12.2907 8.15742C12.4333 8.31476 12.5427 8.50542 12.608 8.71476L12.6107 8.72542C12.7209 9.00098 12.9484 9.6072 13.2933 10.5441C13.4733 10.9628 13.6493 11.4788 13.7907 12.0094L13.8093 12.0934C13.7132 12.5575 13.4627 12.9753 13.0987 13.2788L13.0947 13.2814C12.6191 13.7845 12.3813 14.1045 12.3813 14.2414C12.3864 14.3537 12.4239 14.462 12.4893 14.5534L12.488 14.5521C13.0037 15.6182 13.7167 16.5768 14.5893 17.3774L14.596 17.3841C15.5095 18.207 16.5337 18.8982 17.6387 19.4374L17.7173 19.4721C17.8524 19.5598 18.0084 19.6099 18.1693 19.6174H18.172C18.3791 19.6174 18.7516 19.2832 19.2893 18.6148C19.8271 17.9463 20.1844 17.6121 20.3613 17.6121L20.3627 17.6134ZM16.1667 28.5681H16.196C17.9468 28.5706 19.6788 28.2078 21.2813 27.5028L21.2 27.5348C24.3413 26.2094 26.7907 23.7601 28.084 20.7028L28.116 20.6188C28.7693 19.1348 29.1493 17.4041 29.1493 15.5854C29.1493 13.7668 28.7693 12.0361 28.084 10.4694L28.116 10.5521C26.7907 7.41076 24.3413 4.96142 21.284 3.66809L21.2 3.63609C19.716 2.98276 17.9853 2.60276 16.1667 2.60276C14.348 2.60276 12.6173 2.98276 11.0507 3.66809L11.1333 3.63609C7.992 4.96142 5.54267 7.41076 4.24933 10.4681L4.21733 10.5521C3.52987 12.1464 3.17812 13.8652 3.184 15.6014C3.17969 18.3465 4.05802 21.0203 5.68933 23.2281L5.664 23.1934L4.03067 28.0108L9.03333 26.4188C11.1232 27.8263 13.587 28.575 16.1067 28.5681H16.1693H16.1667ZM16.1667 9.05801e-05H16.2107C18.3813 9.05801e-05 20.4453 0.456091 22.3107 1.27876L22.2133 1.24009C25.98 2.83609 28.9173 5.77342 30.4747 9.43876L30.5133 9.54009C31.2973 11.3228 31.7533 13.4014 31.7533 15.5868C31.7533 17.7721 31.2973 19.8508 30.4747 21.7321L30.5133 21.6334C28.9173 25.4001 25.98 28.3374 22.3147 29.8948L22.2133 29.9334C20.444 30.7174 18.38 31.1734 16.2093 31.1734H16.164H16.1667H16.096C13.3507 31.1734 10.7733 30.4521 8.544 29.1894L8.62 29.2294L0 32.0001L2.812 23.6281C1.34415 21.2135 0.571749 18.4405 0.58 15.6148C0.58 13.4201 1.036 11.3321 1.85867 9.44009L1.82 9.54009C3.416 5.77342 6.35333 2.83609 10.0187 1.27876L10.12 1.24009C12.0138 0.415155 14.0584 -0.00711075 16.124 9.05801e-05H16.168H16.1653H16.1667Z" fill="#4A9DFF"/>
</svg>
